<svg width="94" height="94" viewBox="0 0 94 94" fill="none" xmlns="http://www.w3.org/2000/svg">
<path d="M81.759 55.7452C80.0773 52.8302 76.4895 51.9332 73.5745 53.5029C73.4624 53.615 73.2381 53.7271 73.126 53.7271L68.5292 56.3058C65.8384 57.7633 63.2597 59.4451 60.7931 61.1268C61.2416 60.342 61.3537 59.333 61.0173 58.5481C60.681 57.3148 59.3356 55.7452 55.1872 55.4089C46.7785 54.8483 45.2088 53.2786 45.0967 53.1665C44.3119 52.1575 43.3028 51.3726 42.2938 50.8121C30.6336 44.1971 19.4219 54.0634 18.9734 54.3998L12.4706 57.7633C12.0221 57.9876 11.7979 58.3239 11.5736 58.7724C11.4615 59.2208 11.4615 59.6693 11.6858 60.1178L20.543 76.599C20.7673 77.0475 21.1036 77.2717 21.5521 77.496C21.6642 77.496 21.8884 77.496 22.0005 77.496C22.3369 77.496 22.6733 77.3838 22.8975 77.2717L29.5124 73.1234H29.6245C30.1851 72.787 30.8578 72.787 31.4184 73.1234C39.3787 77.3838 44.3119 78.2808 47.1148 78.2808C47.6754 78.2808 48.236 78.2808 48.7966 78.1687C50.4783 78.0565 64.8293 76.9354 79.7409 63.1449L80.9742 61.9117C82.656 60.342 82.9923 57.7633 81.759 55.7452ZM22.7854 73.5718L15.6099 60.1178L19.3097 58.2118L26.3731 71.2174L22.7854 73.5718ZM78.5076 59.5572L77.3865 60.6784C62.9233 74.1324 48.6845 74.8051 48.5723 74.8051H48.3481C46.8906 75.0294 42.6301 75.1415 33.1002 70.0962C32.3153 69.6477 31.5305 69.4235 30.6336 69.5356C30.2972 69.5356 29.9609 69.5356 29.5124 69.6477L22.3369 56.3058C25.0277 54.2877 32.988 49.4666 40.7241 53.8392C41.5089 54.2877 42.1817 54.8483 42.7422 55.521C44.3119 57.427 48.4602 58.5481 55.1872 58.9966C56.1963 58.9966 57.0932 59.2208 57.9902 59.6693C57.9902 59.7814 57.7659 60.2299 56.869 61.0147C54.6267 62.9207 48.6845 64.9388 42.1817 62.6965C41.2847 62.3601 40.3878 62.8086 40.0514 63.7055C39.8272 64.3782 40.0514 65.1631 40.612 65.6115C40.8362 65.8358 41.1726 65.9479 41.5089 66.06C42.6301 66.5085 43.7513 66.7327 44.8725 66.8448C56.9811 67.8539 62.6991 64.2661 62.6991 64.2661L70.4352 59.4451L75.1441 56.7543L75.2562 56.6421C76.3774 55.8573 78.0592 56.0816 78.844 57.2027C78.844 57.2027 78.9561 57.3148 78.9561 57.427C79.1803 58.0997 79.0682 58.9966 78.5076 59.5572Z" fill="#FDFDFF"/>
<path d="M56.3083 31.5277C55.1871 31.5277 54.2902 32.4246 54.2902 33.4337V33.5458C54.2902 34.667 55.1871 35.5639 56.3083 35.5639C57.4294 35.5639 58.3264 34.667 58.3264 33.5458C58.3264 32.9852 58.1021 32.5368 57.7658 32.0883C57.3173 31.7519 56.8689 31.5277 56.3083 31.5277Z" fill="#127BD7"/>
<path d="M48.9088 28.1643C50.03 28.2764 50.9269 27.3795 51.039 26.2583C51.1511 25.1371 50.2542 24.2402 49.133 24.1281C49.0209 24.1281 48.9088 24.1281 48.7967 24.1281C47.6755 24.1281 46.7786 25.025 46.7786 26.1462C46.8907 27.2673 47.7876 28.1643 48.9088 28.1643Z" fill="#127BD7"/>
<path d="M47.0026 33.6579C47.0026 34.1064 47.2268 34.5548 47.5631 34.8912C48.2359 35.5639 49.357 35.5639 50.0297 34.8912L57.6537 27.1551C58.3264 26.4824 58.3264 25.4733 57.6537 24.8006C57.3173 24.4643 56.8689 24.3522 56.4204 24.3522C55.9719 24.3522 55.5235 24.5764 55.1871 24.8006L47.5631 32.4246C47.2268 32.761 47.0026 33.2094 47.0026 33.6579Z" fill="#127BD7"/>
<path d="M52.6088 43.9728C60.457 43.9728 66.7356 37.5821 66.7356 29.846C66.7356 21.9978 60.3449 15.7192 52.6088 15.7192C44.8727 15.7192 38.4821 21.9978 38.4821 29.846C38.4821 37.6942 44.7606 43.9728 52.6088 43.9728ZM52.6088 19.0828C58.551 19.0828 63.3721 23.9038 63.3721 29.846C63.3721 35.7882 58.551 40.6093 52.6088 40.6093C46.6666 40.6093 41.8456 35.7882 41.8456 29.846C41.8456 23.9038 46.6666 19.0828 52.6088 19.0828Z" fill="#FDFDFF"/>
</svg>
