<svg width="94" height="94" viewBox="0 0 94 94" fill="none" xmlns="http://www.w3.org/2000/svg">
<path d="M29.2249 29.5898C28.3762 29.5898 27.6819 30.2859 27.6819 31.1367V31.8173C27.6819 32.4516 27.1573 32.9775 26.5247 32.9775C25.892 32.9775 25.3674 32.467 25.3674 31.8173V31.1367C25.3674 30.2859 24.6731 29.5898 23.8245 29.5898C22.9758 29.5898 22.2815 30.2859 22.2815 31.1367V31.8173C22.2815 34.1531 24.1948 36.0713 26.5247 36.0713C28.8545 36.0713 30.7678 34.1686 30.7678 31.8173V31.1367C30.7678 30.2859 30.0735 29.5898 29.2249 29.5898Z" fill="#FDFDFF"/>
<path d="M40.0256 36.0557C42.3555 36.0557 44.1917 34.1531 44.1917 31.8018V31.1212C44.1917 30.2704 43.4973 29.5743 42.6487 29.5743C41.8 29.5743 41.1057 30.2704 41.1057 31.1212V31.8018C41.1057 32.4361 40.6583 32.962 40.0256 32.962C39.393 32.962 38.9456 32.4515 38.9456 31.8018V31.1212C38.9456 30.2704 38.2512 29.5743 37.4026 29.5743C36.554 29.5743 35.8596 30.2704 35.8596 31.1212V31.8018C35.8596 34.1531 37.6958 36.0557 40.0256 36.0557Z" fill="#FDFDFF"/>
<path d="M77.3808 58.8723C76.0384 57.5265 74.1714 56.8149 72.2581 56.9696C71.3169 57.0469 70.314 57.2171 69.2647 57.4955C68.447 57.7121 67.9532 58.5629 68.1692 59.3827C68.3853 60.2026 69.2339 60.6976 70.0517 60.481C70.9157 60.249 71.7489 60.1098 72.4896 60.0479C73.4925 59.9705 74.4646 60.3418 75.1589 61.0688C75.8532 61.7958 76.1927 62.7704 76.0847 63.7604C75.7915 66.4983 74.8349 70.7058 72.0884 75.6404L69.8665 71.5257C69.4808 70.8141 68.7401 70.381 67.9224 70.381C67.1046 70.3965 66.3794 70.8605 66.0091 71.5876L64.0341 75.5476C61.3185 70.6594 60.3927 66.4829 60.0841 63.7604C59.9761 62.7704 60.3155 61.7804 61.0099 61.0533C61.6425 60.4037 62.5065 60.0324 63.4015 60.0169C63.5558 60.1871 63.7718 60.481 63.9415 60.713C65.1296 62.2908 67.3515 65.2454 71.6563 64.704C72.505 64.5957 73.1067 63.8223 72.9987 62.9715C72.8907 62.1207 72.1192 61.5174 71.2706 61.6257C68.9253 61.9196 67.7218 60.6048 66.4103 58.8413C65.7005 57.8977 65.037 57.016 63.9415 56.9232C62.0128 56.7685 60.1458 57.4801 58.8034 58.8723C57.461 60.2644 56.813 62.1671 57.029 64.0698C57.3839 67.3646 58.5874 72.5621 62.2442 78.564C62.6608 79.2446 63.4015 79.6468 64.1884 79.6158C64.9753 79.5849 65.6851 79.1208 66.0399 78.4093L67.9841 74.5112L70.1442 78.5021C70.5146 79.1827 71.2243 79.6158 71.9958 79.6468C72.0112 79.6468 72.0267 79.6468 72.0575 79.6468C72.8136 79.6468 73.5233 79.2446 73.9091 78.5949C77.5813 72.5776 78.7849 67.3646 79.1552 64.0543C79.3712 62.1516 78.7231 60.2644 77.3808 58.8723Z" fill="#127BD7"/>
<path d="M67.4905 48.8639C61.6426 48.8639 56.4428 51.6174 53.0946 55.9177C51.1813 54.7575 49.0057 54.1388 46.7375 54.1388H40.4885V52.4527C46.0432 49.8849 50.0241 44.4863 50.5333 38.0977C52.6317 37.6336 54.2518 35.7464 54.2518 33.5035C54.2518 31.276 52.678 29.4043 50.6721 28.9247V22.4279H52.8477C53.6963 22.4279 54.3907 21.7008 54.3907 20.85C54.3907 14.0593 48.8823 8.50598 42.1241 8.50598H31.0764C28.6848 8.50598 26.5864 9.74348 25.3366 11.5843C19.7665 11.9246 16.8965 16.163 16.0479 20.154C15.9862 20.4633 15.9399 20.7882 15.9399 21.1285V28.9093C13.934 29.4043 12.3293 31.2605 12.3293 33.488C12.3293 35.731 13.934 37.6182 16.0479 38.0822C16.5879 44.7029 20.8928 50.2716 26.7561 52.7002V54.1233H20.5071C13.7026 54.1388 8.24048 59.6921 8.24048 66.5138V81.5649C8.24048 82.4157 8.8731 83.0654 9.72173 83.0654H33.36H57.9241C58.0629 83.0654 58.1864 83.0499 58.3098 83.0189C61.01 84.5968 64.1422 85.4939 67.4905 85.4939C77.5661 85.4939 85.7592 77.28 85.7592 67.1789C85.7592 57.0779 77.5661 48.8639 67.4905 48.8639ZM15.9553 34.71C15.6467 34.4161 15.4153 33.9985 15.4153 33.5189C15.4153 33.0394 15.6467 32.6218 15.9553 32.3124V34.71ZM45.1174 68.1844C45.1174 69.391 44.1299 70.381 42.9264 70.381C41.7229 70.381 40.7354 69.391 40.7354 68.1844C40.7354 66.9779 41.7229 65.9879 42.9264 65.9879C44.1299 65.9879 45.1174 66.9624 45.1174 68.1844ZM51.2122 33.5189C51.2122 33.9985 50.9807 34.4161 50.6721 34.7255V32.3279C50.9807 32.6063 51.2122 33.0394 51.2122 33.5189ZM27.6047 13.8891C27.6202 13.8427 27.651 13.7808 27.6665 13.7344C28.2991 12.4969 29.5952 11.6152 31.0764 11.6152H42.1241C46.6604 11.6152 50.4407 15.0183 51.1813 19.3496H31.0764C28.9625 19.3496 27.2499 17.6171 27.2499 15.4824C27.2499 14.9255 27.3733 14.3686 27.6047 13.8891ZM19.0258 21.144C19.0413 21.0357 19.0567 20.9274 19.0721 20.8191C19.211 20.2004 19.643 18.5761 20.7385 17.1685C21.6334 16.0083 22.7907 15.2504 24.1948 14.91C24.1793 15.0957 24.1639 15.2968 24.1639 15.4824C24.1639 18.2049 25.7377 20.5561 28.0059 21.6854C24.6268 25.104 20.8774 25.7072 19.0258 25.7536V21.144ZM19.0413 36.6746V28.8474C21.8186 28.7855 27.0956 27.8574 31.5084 22.4433H47.5862V36.6746C47.5862 44.5482 41.1674 50.9522 33.3137 50.9522C25.46 50.9522 19.0413 44.5327 19.0413 36.6746ZM31.8633 79.9871H11.3264V66.5293C11.3264 61.7185 14.8752 57.7585 19.6584 57.3099V60.0014C16.8811 60.713 14.8752 63.2189 14.8752 66.1889V72.9952C14.8752 73.846 15.5387 74.573 16.3874 74.573H18.3161C19.1647 74.573 19.859 73.8769 19.859 73.0261C19.859 72.1754 19.1647 71.4793 18.3161 71.4793H17.9612V66.2199C17.9612 64.3946 19.3807 62.925 21.2014 62.925C23.0221 62.925 24.4417 64.41 24.4417 66.2199V71.4793H23.6393C22.7907 71.4793 22.0963 72.1754 22.0963 73.0261C22.0963 73.8769 22.7907 74.573 23.6393 74.573H26.0618C26.9104 74.573 27.543 73.846 27.543 72.9952V66.2199C27.543 63.2035 25.5372 60.6821 22.7598 60.0014V57.248H27.5893L31.8633 61.7339V79.9871ZM29.842 55.0824V53.6747C30.9221 53.9068 32.1102 54.0305 33.3137 54.0305C34.7333 54.0305 36.1682 53.8604 37.4026 53.5355V55.0514L33.4217 58.9186L29.842 55.0824ZM34.9338 61.7804L39.5936 57.248H41.4143V63.1261C39.2542 63.7913 37.6649 65.8022 37.6649 68.1844C37.6649 71.0925 40.0256 73.4747 42.9264 73.4747C45.8272 73.4747 48.2034 71.108 48.2034 68.1844C48.2034 65.8022 46.645 63.7913 44.4848 63.1261V57.248H46.7375C48.404 57.248 49.9932 57.6966 51.3973 58.5164C50.0086 61.0997 49.2217 64.0543 49.2217 67.1944C49.2217 72.1754 51.2122 76.6768 54.4215 79.9871H34.9338V61.7804ZM67.4905 82.4311C59.1122 82.4311 52.3077 75.5939 52.3077 67.2099C52.3077 58.8258 59.1276 51.9886 67.4905 51.9886C75.8534 51.9886 82.6733 58.8258 82.6733 67.2099C82.6733 75.5939 75.8534 82.4311 67.4905 82.4311Z" fill="#FDFDFF"/>
</svg>
