<svg width="94" height="94" viewBox="0 0 94 94" fill="none" xmlns="http://www.w3.org/2000/svg">
<path d="M44.9012 45.52H49.0926C50.8212 45.52 52.226 44.1151 52.226 42.3865V39.6867H54.9259C56.6544 39.6867 58.0593 38.2819 58.0593 36.5533V32.3619C58.0593 30.6333 56.6544 29.2284 54.9259 29.2284H52.226V26.5286C52.226 24.8 50.8212 23.3951 49.0926 23.3951H44.9012C43.1726 23.3951 41.7677 24.8 41.7677 26.5286V29.2284H39.0679C37.3393 29.2284 35.9344 30.6333 35.9344 32.3619V36.5533C35.9344 38.2819 37.3393 39.6867 39.0679 39.6867H41.7677V42.3865C41.7735 44.1151 43.1726 45.52 44.9012 45.52ZM39.0737 37.3742C38.6227 37.3742 38.2527 37.0042 38.2527 36.5533V32.3619C38.2527 31.9109 38.6227 31.5409 39.0737 31.5409H43.2651C43.716 31.5409 44.086 31.1709 44.086 30.72V26.5286C44.086 26.0776 44.456 25.7076 44.9069 25.7076H49.0984C49.5493 25.7076 49.9193 26.0776 49.9193 26.5286V30.72C49.9193 31.1709 50.2893 31.5409 50.7402 31.5409H54.9316C55.3826 31.5409 55.7526 31.9109 55.7526 32.3619V36.5533C55.7526 37.0042 55.3826 37.3742 54.9316 37.3742H50.7402C50.2893 37.3742 49.9193 37.7442 49.9193 38.1951V42.3865C49.9193 42.8375 49.5493 43.2075 49.0984 43.2075H44.9069C44.456 43.2075 44.086 42.8375 44.086 42.3865V38.1951C44.086 37.7442 43.716 37.3742 43.2651 37.3742H39.0737Z" fill="#127BD7"/>
<path d="M63.1871 69.7969H63.1874C69.072 69.7969 73.8436 65.0253 73.8436 59.1406C73.8436 53.256 69.072 48.4844 63.1874 48.4844C57.3027 48.4844 52.5311 53.256 52.5311 59.1406L52.5311 59.1409C52.537 65.0253 57.3027 69.791 63.1871 69.7969ZM63.1874 51.2969C67.5182 51.2969 71.0311 54.8098 71.0311 59.1406C71.0311 63.4715 67.5182 66.9844 63.1874 66.9844C58.8565 66.9844 55.3436 63.4715 55.3436 59.1406C55.3436 54.8098 58.8565 51.2969 63.1874 51.2969Z" fill="#FDFDFF" stroke="#FDFDFF" stroke-width="0.5"/>
<path d="M20.8091 67.5938L21.0329 67.4471L20.8714 67.2338C20.4125 66.6275 20.0157 65.9871 19.6755 65.3123L19.5499 65.0632L19.316 65.2152C13.348 69.0944 9.75573 75.7292 9.74988 82.8435V82.8437C9.74988 83.6177 10.3821 84.25 11.1561 84.25C11.9301 84.25 12.5623 83.6178 12.5624 82.8439C12.5681 76.6959 15.6649 70.9643 20.8091 67.5938Z" fill="#FDFDFF" stroke="#FDFDFF" stroke-width="0.5"/>
<path d="M51.8748 82.8438V82.8435C51.8689 75.7293 48.2767 69.0945 42.3147 65.2096L42.0807 65.0571L41.955 65.3065C41.6149 65.9811 41.2123 66.6274 40.7588 67.2283L40.5981 67.4413L40.8211 67.5878C45.9597 70.9642 49.0566 76.6959 49.0623 82.844C49.0624 83.6179 49.6946 84.25 50.4685 84.25C51.2425 84.25 51.8748 83.6178 51.8748 82.8438Z" fill="#FDFDFF" stroke="#FDFDFF" stroke-width="0.5"/>
<path d="M30.8121 70.375H30.8124C36.697 70.375 41.4686 65.6034 41.4686 59.7188C41.4686 53.8341 36.697 49.0625 30.8124 49.0625C24.9277 49.0625 20.1561 53.8341 20.1561 59.7188L20.1561 59.719C20.162 65.6034 24.9277 70.3691 30.8121 70.375ZM30.8124 51.875C35.1432 51.875 38.6561 55.3879 38.6561 59.7188C38.6561 64.0496 35.1432 67.5625 30.8124 67.5625C26.4815 67.5625 22.9686 64.0496 22.9686 59.7188C22.9686 55.3879 26.4815 51.875 30.8124 51.875Z" fill="#FDFDFF" stroke="#FDFDFF" stroke-width="0.5"/>
<path d="M84.25 82.8438V82.8436C84.2442 75.6297 80.5524 68.9248 74.456 65.0633L74.2323 64.9216L74.1037 65.1531C73.7349 65.8169 73.3096 66.4463 72.8335 67.0301L72.6546 67.2494L72.8943 67.3999C78.2095 70.7361 81.4318 76.5704 81.4375 82.844C81.4377 83.6179 82.0699 84.25 82.8438 84.25C83.6178 84.25 84.25 83.6178 84.25 82.8438Z" fill="#FDFDFF" stroke="#FDFDFF" stroke-width="0.5"/>
<path d="M47.67 12.8183L47.6698 12.8186L47.6812 12.8263C54.6008 17.484 62.7297 20.0309 71.0679 20.1648C71.3041 20.1705 71.3956 20.2063 71.4382 20.2432C71.4729 20.2733 71.5237 20.3482 71.5343 20.5907L71.5343 20.5909C71.955 29.996 70.6695 38.8655 67.1149 47.0274L67.007 47.275L67.2623 47.3634C67.9817 47.6127 68.6791 47.9301 69.343 48.3046L69.5839 48.4405L69.6948 48.1872C73.2789 40.0024 74.8097 30.8425 74.3466 20.4704C74.3496 18.7574 72.968 17.3586 71.2473 17.3523H71.2464H71.1215C63.3202 17.214 55.72 14.83 49.2399 10.4818C48.5829 10.0219 47.808 9.763 47.0066 9.75008L47.0066 9.74995L46.9986 9.75008C46.1972 9.763 45.4223 10.0219 44.7653 10.4818C38.2852 14.83 30.685 17.214 22.8837 17.3523L22.7587 17.3523L22.7578 17.3523C21.0372 17.3586 19.6556 18.7574 19.6586 20.4704C19.1955 30.8425 20.7263 40.0024 24.3104 48.1872L24.4213 48.4405L24.6622 48.3046C25.3261 47.9301 26.0235 47.6127 26.7429 47.3634L26.9981 47.275L26.8903 47.0274C23.3357 38.8655 22.0501 29.996 22.4708 20.5909L22.4708 20.5907C22.4815 20.3482 22.5323 20.2733 22.567 20.2432C22.6095 20.2063 22.7011 20.1705 22.9373 20.1648C31.2754 20.0309 39.4044 17.484 46.324 12.8263L46.3242 12.8266L46.3351 12.8183C46.5303 12.6707 46.7604 12.5806 47.0026 12.5632C47.2448 12.5806 47.4748 12.6707 47.67 12.8183Z" fill="#FDFDFF" stroke="#FDFDFF" stroke-width="0.5"/>
<path d="M52.2719 65.1546L52.1433 64.9195L51.9177 65.064C50.6483 65.8771 49.4726 66.8189 48.4022 67.8776L48.2388 68.0392L48.3861 68.2155C48.8777 68.8043 49.3412 69.4223 49.7766 70.0581L49.9487 70.3095L50.1616 70.0916C51.1599 69.0706 52.2779 68.1636 53.4869 67.3995L53.7281 67.247L53.5452 67.0279C53.0588 66.4454 52.6343 65.8172 52.2719 65.1546Z" fill="#FDFDFF" stroke="#FDFDFF" stroke-width="0.5"/>
</svg>
