<svg width="94" height="94" viewBox="0 0 94 94" fill="none" xmlns="http://www.w3.org/2000/svg">
<path d="M85.9999 86.4529H7.99133C7.52932 86.4529 7.16504 86.0798 7.16504 85.6266C7.16504 77.8347 13.4821 71.5176 21.2741 71.5176H72.726C80.518 71.5176 86.835 77.8347 86.835 85.6266C86.835 86.0798 86.4619 86.4529 85.9999 86.4529ZM11.6607 83.1389H82.3304C82.8813 83.1389 83.2811 82.6147 83.139 82.0816C81.9573 77.9057 78.1102 74.8405 73.5611 74.8405H20.4389C15.8899 74.8405 12.0428 77.9057 10.8611 82.0816C10.7101 82.6058 11.1099 83.1389 11.6607 83.1389Z" fill="#FDFDFF"/>
<path d="M72.4417 74.8405C71.5266 74.8405 70.7803 74.0942 70.7803 73.179V65.4315C70.7803 64.5163 71.5266 63.77 72.4417 63.77C73.3569 63.77 74.1032 64.5163 74.1032 65.4315V73.179C74.1032 74.0942 73.3658 74.8405 72.4417 74.8405Z" fill="#FDFDFF"/>
<path d="M72.868 52.8329C72.8058 52.8329 72.7525 52.8329 72.6903 52.824C71.7751 52.7263 71.1177 51.9089 71.2154 51.0027C71.3043 50.203 71.3398 49.3767 71.3398 48.5593C71.3398 41.7802 68.3634 35.3832 63.1835 31.003C63.068 30.9052 62.9437 30.8075 62.8193 30.7009C62.1085 30.1234 61.993 29.0839 62.5705 28.3642C63.148 27.6534 64.1875 27.5379 64.9072 28.1154C65.0494 28.2309 65.1826 28.3464 65.3248 28.4619C71.2598 33.4729 74.6627 40.794 74.6627 48.5505C74.6627 49.4834 74.6094 50.4163 74.5117 51.3403C74.4228 52.2021 73.7032 52.8329 72.868 52.8329Z" fill="#FDFDFF"/>
<path d="M48.3818 74.8404C37.1781 74.8404 27.1915 67.7237 23.531 57.1419C23.2289 56.28 23.6909 55.3294 24.5616 55.0273C25.4323 54.7341 26.3741 55.1872 26.6762 56.0579C29.8659 65.307 38.5907 71.5175 48.3818 71.5175C54.9477 71.5175 61.2114 68.6921 65.5739 63.7788C66.178 63.0947 67.2353 63.0325 67.9195 63.6367C68.6036 64.2408 68.6658 65.2892 68.0616 65.9822C63.0684 71.6063 55.8983 74.8404 48.3818 74.8404Z" fill="#FDFDFF"/>
<path d="M48.3817 66.5332C41.9225 66.5332 35.9252 63.0415 32.7356 57.4174C32.2825 56.6178 32.5668 55.6049 33.3575 55.1518C34.1572 54.6987 35.17 54.983 35.6231 55.7737C38.2264 60.3583 43.113 63.2103 48.3817 63.2103C56.4669 63.2103 63.0416 56.6355 63.0416 48.5504C63.0416 43.8237 60.7405 39.3546 56.8845 36.6003C56.1381 36.0672 55.9693 35.0366 56.4935 34.2814C57.0266 33.5351 58.0573 33.3574 58.8125 33.8905C63.5392 37.2578 66.3646 42.7397 66.3646 48.5415C66.3557 58.4747 58.2972 66.5332 48.3817 66.5332Z" fill="#FDFDFF"/>
<path d="M69.4031 65.9823C64.9785 65.9823 61.3801 62.384 61.3801 57.9594C61.3801 53.5347 64.9785 49.9364 69.4031 49.9364C73.8277 49.9364 77.4261 53.5347 77.4261 57.9594C77.4261 62.384 73.8277 65.9823 69.4031 65.9823ZM69.4031 53.2593C66.8087 53.2593 64.703 55.3739 64.703 57.9594C64.703 60.5449 66.8176 62.6594 69.4031 62.6594C71.9886 62.6594 74.1032 60.5449 74.1032 57.9594C74.1032 55.365 71.9975 53.2593 69.4031 53.2593Z" fill="#FDFDFF"/>
<path d="M46.9957 58.2348H13.8021C12.8869 58.2348 12.1406 57.4885 12.1406 56.5733C12.1406 55.6582 12.8869 54.9119 13.8021 54.9119H46.9957C47.9108 54.9119 48.6572 55.6582 48.6572 56.5733C48.6572 57.4885 47.9108 58.2348 46.9957 58.2348Z" fill="#FDFDFF"/>
<path d="M44.5167 43.6549L39.8255 38.9637C38.1285 37.2667 38.1285 34.5302 39.8255 32.8332L59.7985 12.8601C61.4955 11.1632 64.232 11.1632 65.929 12.8601L70.6202 17.5513C72.3172 19.2483 72.3172 21.9848 70.6202 23.6818L50.6472 43.6549C48.9591 45.343 46.2137 45.343 44.5167 43.6549ZM44.5167 38.9637C46.2137 40.6607 48.9502 40.6607 50.6472 38.9637L65.929 23.6818C67.626 21.9848 67.626 19.2483 65.929 17.5513C64.232 15.8543 61.4955 15.8543 59.7985 17.5513L44.5167 32.8332C42.8285 34.5213 42.8285 37.2667 44.5167 38.9637Z" fill="#127BD7"/>
<path d="M70.6293 19.6659C70.1673 19.6659 69.6964 19.4704 69.3676 19.0884C68.7901 18.4131 68.9056 17.3914 69.5276 16.7605L72.8682 13.4198L70.0606 10.6123L66.3201 14.3528C65.7337 14.9392 64.792 15.0813 64.1256 14.6015C63.2727 13.9885 63.2016 12.789 63.9124 12.0694L67.2886 8.69314C68.8168 7.16495 71.3045 7.16495 72.8327 8.69314L74.7874 10.6478C76.3155 12.176 76.3155 14.6637 74.7874 16.1919L71.8021 19.1772C71.4822 19.5059 71.0557 19.6659 70.6293 19.6659Z" fill="#127BD7"/>
</svg>
